<?xml version="1.0" encoding="utf-8"?>
<!-- Generator: Adobe Illustrator 15.1.0, SVG Export Plug-In . SVG Version: 6.00 Build 0)  -->
<!DOCTYPE svg PUBLIC "-//W3C//DTD SVG 1.1//EN" "http://www.w3.org/Graphics/SVG/1.1/DTD/svg11.dtd">
<svg version="1.1" xmlns="http://www.w3.org/2000/svg" xmlns:xlink="http://www.w3.org/1999/xlink" x="0px" y="0px"
	 width="283.945px" height="98.669px" viewBox="0 0 283.945 98.669" enable-background="new 0 0 283.945 98.669"
	 xml:space="preserve">
<g id="Plano_de_Fundo_xA0_Image_1_">
</g>
<g id="Camada_2_xA0_Image_1_">
</g>
<g id="Forma_2_1_" enable-background="new    ">
</g>
<g id="LUDORATÓRIO">
	<g>
		<g id="Forma_2">
			<g>
				<path fill-rule="evenodd" clip-rule="evenodd" fill="#F9F9F9" d="M74.641,33.901c-0.658-0.723-2.273-1.934-3.589-2.694
					L55.69,22.338c-1.316-0.76-2.394-2.625-2.394-4.146V5.627h3.88c1.519,0,2.763-1.243,2.763-2.762V2.764
					c0-1.52-1.244-2.764-2.763-2.764h-6.55c-0.017,0-0.032,0.003-0.047,0.003S50.549,0,50.533,0h-0.101
					c-1.52,0-2.764,1.244-2.764,2.764v18.679c0,1.519,1.077,3.384,2.394,4.144l15.36,8.869c1.317,0.76,2.932,1.972,3.59,2.695
					c0.658,0.722,1.197,4.076,1.197,5.594v26.234c0,1.52-0.243,3.524-0.539,4.455c-0.296,0.931-2.931,3.075-4.248,3.835
					L42.704,90.386c-1.316,0.76-3.173,1.55-4.128,1.759c-0.954,0.209-4.127-1-5.444-1.759L10.414,77.269
					c-1.317-0.76-2.931-1.973-3.59-2.695c-0.658-0.722-1.196-4.075-1.196-5.595V42.745c0-1.518,0.242-3.524,0.539-4.455
					c0.295-0.931,2.93-3.075,4.248-3.834l15.132-8.737c1.316-0.761,2.392-2.626,2.392-4.144V3.282
					c0.021-0.136,0.035-0.275,0.035-0.416V2.764c0-1.52-1.242-2.764-2.763-2.764h-6.55c-1.52,0-2.763,1.244-2.763,2.764v0.102
					c0,1.519,1.243,2.762,2.763,2.762h3.65v12.697c0,1.52-1.077,3.386-2.394,4.146L4.786,31.207
					c-1.316,0.76-2.931,1.971-3.589,2.694C0.538,34.623,0,37.977,0,39.496v32.731c0,1.52,0.242,3.525,0.538,4.457
					c0.296,0.93,2.932,3.074,4.248,3.834l28.347,16.366c1.316,0.76,3.174,1.555,4.128,1.762c0.955,0.209,4.127-1.002,5.444-1.762
					l28.348-16.366c1.315-0.76,2.931-1.972,3.589-2.695c0.658-0.721,1.196-4.076,1.196-5.596V39.496
					C75.837,37.977,75.299,34.623,74.641,33.901z M35.525,54.384L12.192,40.913c-1.316-0.76-2.394-0.138-2.394,1.381v26.943
					c0,1.519,1.078,3.383,2.394,4.145l23.333,13.472c1.316,0.76,3.47,0.76,4.786,0l23.334-13.472
					c1.314-0.761,2.393-2.625,2.393-4.145V42.294c0-1.519-1.078-2.141-2.393-1.381L40.312,54.384
					C38.995,55.144,36.842,55.144,35.525,54.384z M16.895,70.687c-1.382-0.795-2.503-2.709-2.503-4.272
					c0-1.564,1.121-2.186,2.503-1.389c1.383,0.796,2.504,2.709,2.504,4.274C19.399,70.863,18.278,71.484,16.895,70.687z
					 M30.666,63.049c-1.383-0.797-2.504-2.708-2.504-4.272c0-1.564,1.121-2.186,2.504-1.39c1.382,0.797,2.503,2.71,2.503,4.274
					C33.169,63.224,32.048,63.845,30.666,63.049z M58.033,65.025c1.382-0.797,2.504-0.175,2.504,1.389
					c0,1.563-1.122,3.477-2.504,4.272c-1.382,0.798-2.503,0.177-2.503-1.387C55.53,67.735,56.651,65.822,58.033,65.025z
					 M51.148,61.208c1.382-0.797,2.503-0.175,2.503,1.386c0,1.564-1.121,3.477-2.503,4.274c-1.383,0.797-2.504,0.175-2.504-1.389
					C48.645,63.916,49.766,62.002,51.148,61.208z M44.263,57.387c1.383-0.796,2.505-0.174,2.505,1.39
					c0,1.563-1.122,3.475-2.505,4.272c-1.382,0.796-2.504,0.175-2.504-1.387C41.759,60.097,42.881,58.184,44.263,57.387z
					 M34.745,41.227c1.534,0.887,3.998,0.903,5.502,0.035c1.505-0.869,1.48-2.293-0.054-3.18c-1.535-0.89-3.999-0.905-5.503-0.036
					C33.185,38.913,33.21,40.339,34.745,41.227z"/>
			</g>
		</g>
	</g>
	<g>
		<path fill="#F9F9F9" d="M93.424,64.006c-0.46,0-0.86-0.17-1.2-0.51c-0.34-0.34-0.51-0.74-0.51-1.2V43.814
			c0-0.46,0.17-0.86,0.51-1.2c0.34-0.34,0.74-0.51,1.2-0.51h1.86c0.46,0,0.855,0.17,1.185,0.51c0.33,0.34,0.495,0.74,0.495,1.2
			v15.722c0,0.16,0.09,0.24,0.27,0.24h7.291c0.46,0,0.86,0.17,1.2,0.51c0.34,0.341,0.51,0.74,0.51,1.2v0.811
			c0,0.46-0.17,0.86-0.51,1.2c-0.34,0.34-0.74,0.51-1.2,0.51H93.424z"/>
		<path fill="#F9F9F9" d="M116.647,64.306c-5.601,0-8.401-2.75-8.401-8.251V43.814c0-0.46,0.169-0.86,0.51-1.2
			c0.34-0.34,0.74-0.51,1.2-0.51h1.74c0.46,0,0.86,0.17,1.2,0.51c0.34,0.34,0.51,0.74,0.51,1.2v12.602c0,1.36,0.259,2.33,0.78,2.91
			c0.52,0.58,1.36,0.87,2.521,0.87c1.16,0,2-0.29,2.52-0.87s0.78-1.55,0.78-2.91V43.814c0-0.46,0.17-0.86,0.51-1.2
			c0.34-0.34,0.74-0.51,1.2-0.51h1.62c0.46,0,0.86,0.17,1.2,0.51c0.34,0.34,0.51,0.74,0.51,1.2v12.241
			C125.048,61.556,122.247,64.306,116.647,64.306z"/>
		<path fill="#F9F9F9" d="M130.988,64.066c-0.48-0.04-0.88-0.244-1.2-0.614c-0.32-0.37-0.48-0.806-0.48-1.306V43.963
			c0-0.499,0.16-0.935,0.48-1.305c0.32-0.37,0.72-0.575,1.2-0.615c1.56-0.16,3.1-0.24,4.621-0.24c3.58,0,6.341,0.95,8.281,2.851
			c1.94,1.9,2.91,4.601,2.91,8.102c0,3.8-0.97,6.676-2.91,8.626c-1.94,1.95-4.701,2.925-8.281,2.925
			C134.088,64.306,132.548,64.226,130.988,64.066z M134.289,46.244v13.622c0,0.18,0.09,0.29,0.27,0.33c0.4,0.08,0.88,0.12,1.44,0.12
			c2.02,0,3.515-0.59,4.485-1.771c0.97-1.18,1.455-3.109,1.455-5.79c0-2.4-0.49-4.16-1.47-5.281c-0.98-1.12-2.471-1.68-4.471-1.68
			c-0.56,0-1.041,0.04-1.44,0.12C134.379,45.955,134.289,46.064,134.289,46.244z"/>
		<path fill="#F9F9F9" d="M166.723,61.321c-1.841,1.991-4.341,2.985-7.501,2.985c-3.161,0-5.661-0.994-7.501-2.985
			c-1.84-1.99-2.76-4.745-2.76-8.266s0.92-6.275,2.76-8.267c1.84-1.989,4.34-2.985,7.501-2.985c3.16,0,5.66,0.996,7.501,2.985
			c1.84,1.991,2.76,4.746,2.76,8.267S168.563,59.331,166.723,61.321z M164.262,53.055c0-4.7-1.68-7.051-5.041-7.051
			s-5.041,2.351-5.041,7.051s1.68,7.051,5.041,7.051S164.262,57.755,164.262,53.055z"/>
		<path fill="#F9F9F9" d="M174.403,64.006c-0.461,0-0.86-0.17-1.2-0.51c-0.341-0.34-0.511-0.74-0.511-1.2V43.963
			c0-0.499,0.165-0.93,0.495-1.29c0.33-0.359,0.735-0.56,1.216-0.6c1.779-0.18,3.609-0.271,5.49-0.271c3,0,5.235,0.565,6.706,1.695
			c1.47,1.131,2.205,2.735,2.205,4.815c0,1.341-0.39,2.546-1.17,3.616s-1.801,1.835-3.061,2.295c-0.021,0-0.03,0.011-0.03,0.03
			c0,0.04,0.02,0.06,0.061,0.06c0.979,0.561,1.81,1.74,2.49,3.541l1.71,4.561c0.14,0.38,0.09,0.74-0.15,1.08
			c-0.239,0.34-0.56,0.51-0.96,0.51h-1.83c-0.521,0-0.99-0.15-1.41-0.45s-0.71-0.69-0.87-1.17l-1.5-4.32
			c-0.28-0.841-0.62-1.41-1.021-1.711c-0.4-0.3-1.02-0.449-1.86-0.449h-1.26c-0.16,0-0.24,0.09-0.24,0.27v6.121
			c0,0.46-0.17,0.86-0.51,1.2c-0.341,0.34-0.74,0.51-1.2,0.51H174.403z M177.703,46.125v5.761c0,0.18,0.08,0.27,0.24,0.27h1.44
			c1.399,0,2.47-0.295,3.21-0.885s1.11-1.415,1.11-2.476c0-2.08-1.37-3.12-4.11-3.12c-0.62,0-1.16,0.04-1.62,0.12
			C177.793,45.834,177.703,45.944,177.703,46.125z"/>
		<path fill="#F9F9F9" d="M192.345,64.006c-0.42,0-0.756-0.17-1.006-0.51s-0.305-0.71-0.165-1.11l6.062-18.662
			c0.159-0.48,0.444-0.87,0.854-1.171c0.41-0.3,0.865-0.449,1.365-0.449h1.98c0.52,0,0.99,0.149,1.41,0.449
			c0.42,0.301,0.7,0.69,0.84,1.171l6.031,18.662c0.14,0.4,0.085,0.771-0.165,1.11s-0.585,0.51-1.005,0.51h-2.011
			c-0.5,0-0.95-0.154-1.351-0.465c-0.399-0.311-0.659-0.705-0.779-1.186l-0.721-2.851c-0.02-0.159-0.12-0.239-0.3-0.239h-6.001
			c-0.16,0-0.26,0.08-0.3,0.239l-0.72,2.851c-0.12,0.48-0.381,0.875-0.78,1.186c-0.4,0.311-0.851,0.465-1.351,0.465H192.345z
			 M200.355,46.544l-2.19,8.61c-0.021,0.061-0.005,0.116,0.045,0.165c0.05,0.051,0.105,0.075,0.165,0.075h4.021
			c0.061,0,0.115-0.024,0.165-0.075c0.05-0.049,0.064-0.104,0.045-0.165l-2.19-8.61c0-0.02-0.01-0.03-0.029-0.03
			C200.365,46.514,200.355,46.525,200.355,46.544z"/>
		<path fill="#F9F9F9" d="M210.137,46.334c-0.46,0-0.86-0.17-1.2-0.511c-0.34-0.34-0.51-0.739-0.51-1.2v-0.81
			c0-0.46,0.17-0.86,0.51-1.2s0.74-0.51,1.2-0.51h13.382c0.46,0,0.859,0.17,1.2,0.51c0.34,0.34,0.51,0.74,0.51,1.2v0.81
			c0,0.461-0.17,0.86-0.51,1.2c-0.341,0.341-0.74,0.511-1.2,0.511h-3.841c-0.16,0-0.239,0.08-0.239,0.239v15.723
			c0,0.46-0.171,0.86-0.511,1.2s-0.74,0.51-1.2,0.51h-1.8c-0.461,0-0.86-0.17-1.2-0.51c-0.341-0.34-0.51-0.74-0.51-1.2V46.574
			c0-0.159-0.08-0.239-0.24-0.239H210.137z"/>
		<path fill="#F9F9F9" d="M242.751,61.321c-1.841,1.991-4.341,2.985-7.501,2.985c-3.161,0-5.661-0.994-7.501-2.985
			c-1.841-1.99-2.761-4.745-2.761-8.266s0.92-6.275,2.761-8.267c1.84-1.989,4.34-2.985,7.501-2.985c3.16,0,5.66,0.996,7.501,2.985
			c1.84,1.991,2.761,4.746,2.761,8.267S244.591,59.331,242.751,61.321z M240.291,53.055c0-4.7-1.681-7.051-5.041-7.051
			s-5.041,2.351-5.041,7.051s1.681,7.051,5.041,7.051S240.291,57.755,240.291,53.055z"/>
		<path fill="#F9F9F9" d="M250.432,64.006c-0.46,0-0.86-0.17-1.2-0.51s-0.51-0.74-0.51-1.2V43.963c0-0.499,0.165-0.93,0.495-1.29
			c0.33-0.359,0.735-0.56,1.215-0.6c1.78-0.18,3.61-0.271,5.491-0.271c3,0,5.235,0.565,6.706,1.695
			c1.47,1.131,2.205,2.735,2.205,4.815c0,1.341-0.391,2.546-1.171,3.616c-0.779,1.07-1.8,1.835-3.06,2.295
			c-0.021,0-0.03,0.011-0.03,0.03c0,0.04,0.02,0.06,0.06,0.06c0.98,0.561,1.811,1.74,2.49,3.541l1.711,4.561
			c0.14,0.38,0.09,0.74-0.15,1.08s-0.561,0.51-0.96,0.51h-1.83c-0.521,0-0.99-0.15-1.41-0.45s-0.711-0.69-0.87-1.17l-1.5-4.32
			c-0.281-0.841-0.621-1.41-1.021-1.711c-0.4-0.3-1.021-0.449-1.86-0.449h-1.26c-0.16,0-0.24,0.09-0.24,0.27v6.121
			c0,0.46-0.17,0.86-0.51,1.2c-0.341,0.34-0.74,0.51-1.2,0.51H250.432z M253.732,46.125v5.761c0,0.18,0.08,0.27,0.24,0.27h1.439
			c1.4,0,2.471-0.295,3.211-0.885c0.739-0.59,1.11-1.415,1.11-2.476c0-2.08-1.371-3.12-4.111-3.12c-0.62,0-1.16,0.04-1.62,0.12
			C253.822,45.834,253.732,45.944,253.732,46.125z"/>
		<path fill="#F9F9F9" d="M271.733,55.366l-6.24-11.762c-0.18-0.34-0.17-0.675,0.03-1.005c0.199-0.33,0.499-0.495,0.899-0.495h2.431
			c0.52,0,0.99,0.14,1.41,0.42s0.729,0.66,0.93,1.14l3.301,7.801c0,0.021,0.01,0.03,0.03,0.03c0.02,0,0.029-0.01,0.029-0.03
			l3.301-7.801c0.2-0.479,0.51-0.859,0.931-1.14c0.42-0.28,0.89-0.42,1.41-0.42h2.31c0.38,0,0.676,0.165,0.886,0.495
			s0.225,0.665,0.045,1.005l-6.241,11.762c-0.08,0.14-0.12,0.31-0.12,0.51v6.421c0,0.46-0.165,0.86-0.495,1.2
			s-0.725,0.51-1.185,0.51h-1.86c-0.461,0-0.86-0.17-1.2-0.51c-0.341-0.34-0.51-0.74-0.51-1.2v-6.421
			C271.824,55.635,271.794,55.465,271.733,55.366z"/>
	</g>
</g>
<g id="Experimentos_em_game_design">
</g>
</svg>
