<?xml version="1.0" encoding="utf-8"?>
<!-- Generator: Adobe Illustrator 15.1.0, SVG Export Plug-In . SVG Version: 6.00 Build 0)  -->
<!DOCTYPE svg PUBLIC "-//W3C//DTD SVG 1.1//EN" "http://www.w3.org/Graphics/SVG/1.1/DTD/svg11.dtd">
<svg version="1.1" xmlns="http://www.w3.org/2000/svg" xmlns:xlink="http://www.w3.org/1999/xlink" x="0px" y="0px"
	 width="75.837px" height="98.669px" viewBox="0 0 75.837 98.669" enable-background="new 0 0 75.837 98.669" xml:space="preserve">
<g id="Plano_de_Fundo_xA0_Image_1_">
</g>
<g id="Camada_2_xA0_Image_1_">
</g>
<g id="Forma_2_1_" enable-background="new    ">
</g>
<g id="LUDORATÓRIO">
	<g>
		<g id="Forma_2">
			<g>
				<path fill-rule="evenodd" clip-rule="evenodd" fill="#FFFFFF" d="M74.641,33.901c-0.658-0.723-2.273-1.934-3.589-2.694
					L55.69,22.338c-1.316-0.76-2.394-2.625-2.394-4.146V5.627h3.88c1.519,0,2.763-1.243,2.763-2.762V2.764
					c0-1.52-1.244-2.764-2.763-2.764h-6.55c-0.017,0-0.032,0.003-0.047,0.003S50.549,0,50.533,0h-0.101
					c-1.52,0-2.764,1.244-2.764,2.764v12.178c0,1.521,0,4.007,0,5.528v0.973c0,1.519,1.077,3.384,2.394,4.144l15.36,8.869
					c1.317,0.76,2.932,1.972,3.59,2.695c0.658,0.722,1.197,4.076,1.197,5.594v26.234c0,1.52-0.243,3.524-0.539,4.455
					c-0.296,0.931-2.931,3.075-4.248,3.835L42.704,90.386c-1.316,0.76-3.173,1.551-4.128,1.76c-0.954,0.209-4.127-1-5.444-1.76
					L10.414,77.269c-1.317-0.76-2.931-1.973-3.59-2.695c-0.658-0.722-1.196-4.075-1.196-5.595V42.745
					c0-1.518,0.242-3.524,0.539-4.455c0.295-0.931,2.93-3.075,4.248-3.834l15.132-8.737c1.316-0.761,2.392-2.626,2.392-4.144v-0.973
					c0-1.52,0-4.006,0-5.527V3.282c0.021-0.136,0.035-0.275,0.035-0.416V2.764c0-1.52-1.242-2.764-2.763-2.764h-0.035h-0.102h-6.414
					c-1.52,0-2.763,1.244-2.763,2.764v0.102c0,1.519,1.243,2.762,2.763,2.762h3.65v12.697c0,1.52-1.077,3.386-2.394,4.146
					L4.786,31.207c-1.316,0.76-2.931,1.971-3.589,2.694C0.538,34.623,0,37.977,0,39.496v32.731c0,1.52,0.242,3.525,0.538,4.457
					c0.296,0.93,2.932,3.075,4.248,3.834l28.347,16.365c1.316,0.76,3.174,1.555,4.128,1.762c0.955,0.209,4.127-1.002,5.444-1.762
					l28.348-16.365c1.315-0.76,2.931-1.973,3.589-2.695c0.658-0.721,1.196-4.076,1.196-5.596V39.496
					C75.837,37.977,75.299,34.623,74.641,33.901z M35.525,54.384L12.192,40.913c-1.316-0.76-2.394-0.138-2.394,1.381v26.943
					c0,1.519,1.078,3.383,2.394,4.145l23.333,13.472c1.316,0.76,3.47,0.76,4.786,0l23.334-13.472
					c1.314-0.761,2.393-2.625,2.393-4.145V42.294c0-1.519-1.078-2.141-2.393-1.381L40.312,54.384
					C38.995,55.144,36.842,55.144,35.525,54.384z M16.895,70.687c-1.382-0.795-2.503-2.709-2.503-4.272
					c0-1.564,1.121-2.186,2.503-1.389c1.383,0.796,2.504,2.709,2.504,4.274C19.399,70.863,18.278,71.484,16.895,70.687z
					 M30.666,63.049c-1.383-0.797-2.504-2.708-2.504-4.272c0-1.564,1.121-2.186,2.504-1.39c1.382,0.797,2.503,2.71,2.503,4.274
					C33.169,63.224,32.048,63.845,30.666,63.049z M58.033,65.025c1.382-0.797,2.504-0.175,2.504,1.389
					c0,1.563-1.122,3.477-2.504,4.272c-1.382,0.798-2.503,0.177-2.503-1.387C55.53,67.735,56.651,65.822,58.033,65.025z
					 M51.148,61.208c1.382-0.797,2.503-0.175,2.503,1.386c0,1.564-1.121,3.477-2.503,4.274c-1.383,0.797-2.504,0.175-2.504-1.389
					C48.645,63.916,49.766,62.002,51.148,61.208z M44.263,57.387c1.383-0.796,2.505-0.174,2.505,1.39
					c0,1.563-1.122,3.475-2.505,4.272c-1.382,0.796-2.504,0.175-2.504-1.387C41.759,60.097,42.881,58.184,44.263,57.387z
					 M34.745,41.227c1.534,0.887,3.998,0.903,5.502,0.035c1.505-0.869,1.48-2.293-0.054-3.18c-1.535-0.89-3.999-0.905-5.503-0.036
					C33.185,38.913,33.21,40.339,34.745,41.227z"/>
			</g>
		</g>
	</g>
</g>
<g id="Experimentos_em_game_design">
</g>
</svg>
